# xmcd
#
# Track frame offsets:
#	150
#	11477
#	24194
#	37786
#	49730
#	62647
#	77443
#	88920
#	101411
#	116442
#	128910
#	142836
#	155184
#	167869
#	178991
#	193992
#	209281
#	221378
#	233459
#	245555
#	258763
#	270607
#	282804
#	294433
#	306922
#
# Disc length: 4248 seconds
#
# Revision: 1
# Processed by: cddbd v1.4PL0 Copyright (c) Steve Scherf et al.
# Submitted via: audiograbber 1.81.03
#
DISCID=58109619
DTITLE=Various Artist - The Roots of Doo-Wop cd1
DYEAR=2002
DGENRE=Vocal
TTITLE0=Slim and Slam - The Flat Foot Floogie
TTITLE1=The Cats and The Fiddle - Killin Jive
TTITLE2=Lewis Bronzeville Five - Low Down Gal Blues
TTITLE3=Five Red Caps - Mama Put Your Britches On
TTITLE4=Charioteers - No Soup
TTITLE5=Toppers - If Money Grew on Trees
TTITLE6=Deep River Boys - That Chick's Too Young to Fry
TTITLE7=Basin Street Boys - Vootnay on the Votnay
TTITLE8=Charioteers - I Miss You So
TTITLE9=The Cats and The Fiddle - Shorty's Got to Go
TTITLE10=Basin Street Boys - I Sold My Heart to the Junkman
TTITLE11=Ravens - Bye Bye Baby Blues
TTITLE12=Harlemaires (feat W Harris) - A Ghost of a Chance
TTITLE13=Four Aces - Garbage Man
TTITLE14=Charioteers - Open the Door Richard
TTITLE15=Dozier Boys - In Every Man's Life
TTITLE16=Four Aces - Richard Aint Gonna Open the Door
TTITLE17=Big Three Trio - You Sure Look Good to Me
TTITLE18=Four Aces - I'm Crying All the Time
TTITLE19=Delta Rhythm Boys  - Dry Bones
TTITLE20=Five Scamps - Fine like Wine
TTITLE21=Delta Rhythm Boys - Never Underestimate The Power of a Woman
TTITLE22=Four Bluebirds - My Baby Done Told Me
TTITLE23=The Sharps and a Flat - I Knew He Would
TTITLE24=Beavers - I Gotta Do It
EXTD=
EXTT0=
EXTT1=
EXTT2=
EXTT3=
EXTT4=
EXTT5=
EXTT6=
EXTT7=
EXTT8=
EXTT9=
EXTT10=
EXTT11=
EXTT12=
EXTT13=
EXTT14=
EXTT15=
EXTT16=
EXTT17=
EXTT18=
EXTT19=
EXTT20=
EXTT21=
EXTT22=
EXTT23=
EXTT24=
PLAYORDER=
